3.0Hz3min_grf.mot
version=1
nRows=10
nColumns 19
inDegrees=yes
endheader
time	1_ground_force_vx	1_ground_force_vy	1_ground_force_vz	1_ground_force_px	1_ground_force_py	1_ground_force_pz	1_ground_torque_x	1_ground_torque_y	1_ground_torque_z	2_ground_force_vx	2_ground_force_vy	2_ground_force_vz	2_ground_force_px	2_ground_force_py	2_ground_force_pz	2_ground_torque_x	2_ground_torque_y	2_ground_torque_z
            1.253500	            0.139201	            1.438810	            0.785393	           -0.233013	            0.005581	           -0.255695	           -0.635852	            0.075608	           -0.387045	            0.112971	           -2.480120	           24.253248	           -0.232311	            0.006130	           -0.833667	            0.881002	           -4.712566	           -0.356502
            1.254000	            0.001229	            3.241636	            0.747608	           -0.233013	            0.005581	           -0.255695	           -0.597449	            0.167824	           -0.355077	           -0.169458	           -2.112838	           24.254681	           -0.232311	            0.006130	           -0.833667	            0.787304	           -4.769823	           -0.300113
            1.254500	           -0.226533	            0.896369	            1.150832	           -0.233013	            0.005581	           -0.255695	           -0.613609	            0.158567	           -0.383565	           -0.031005	           -1.559049	           24.021952	           -0.232311	            0.006130	           -0.833667	            0.993764	           -4.721747	           -0.318883
            1.255000	           -0.455700	            1.256659	            1.198802	           -0.233013	            0.005581	           -0.255695	           -0.578271	            0.130740	           -0.393558	           -0.077793	           -1.559720	           24.162756	           -0.232311	            0.006130	           -0.833667	            0.787160	           -4.731945	           -0.318829
            1.255500	           -0.317698	            0.535033	            1.332937	           -0.233013	            0.005581	           -0.255695	           -0.696146	            0.102813	           -0.331101	            0.108319	           -1.191082	           24.257847	           -0.232311	            0.006130	           -0.833667	            0.918674	           -4.731605	           -0.281184
            1.256000	           -0.043374	            1.437398	            1.106839	           -0.233013	            0.005581	           -0.255695	           -0.686932	            0.167637	           -0.319150	            0.111683	           -2.112158	           24.348418	           -0.232311	            0.006130	           -0.833667	            0.993669	           -4.684272	           -0.224497
            1.256500	            0.093945	            0.716952	            0.965838	           -0.233013	            0.005581	           -0.255695	           -0.699641	            0.168176	           -0.426015	            0.204800	           -1.928341	           24.536747	           -0.232311	            0.006130	           -0.833667	            1.031334	           -4.712427	           -0.243464
            1.257000	            0.414717	            0.176610	            0.871011	           -0.233013	            0.005581	           -0.255695	           -0.676526	            0.149758	           -0.393650	            0.109853	           -1.561052	           24.725814	           -0.232311	            0.006130	           -0.833667	            1.050161	           -4.712695	           -0.149221
            1.257500	            0.276616	            1.439033	            0.739196	           -0.233013	            0.005581	           -0.255695	           -0.633944	            0.158941	           -0.399626	            0.062736	           -1.559046	           24.115768	           -0.232311	            0.006130	           -0.833667	            0.899795	           -4.712566	           -0.337659
            1.258000	            0.231327	            0.897441	            0.920414	           -0.233013	            0.005581	           -0.255695	           -0.660184	            0.103461	           -0.401734	            0.019251	           -2.480291	           24.206359	           -0.232311	            0.006130	           -0.833667	            0.899939	           -4.741260	           -0.243509
